<?xml version="1.0" encoding="UTF-8"?><svg id="a" xmlns="http://www.w3.org/2000/svg" xmlns:xlink="http://www.w3.org/1999/xlink" viewBox="0 0 956.24 485.05"><defs><style>.e{fill:url(#d);}.f{fill:url(#c);}.g{fill:url(#b);}</style><radialGradient id="b" cx="266.63" cy="392.42" fx="266.63" fy="392.42" r="182.57" gradientTransform="matrix(1, 0, 0, 1, 0, 0)" gradientUnits="userSpaceOnUse"><stop offset=".03" stop-color="#fff9e1"/><stop offset="1" stop-color="#cd9c46"/></radialGradient><radialGradient id="c" cx="240.73" cy="235.96" fx="240.73" fy="235.96" r="119.84" xlink:href="#b"/><radialGradient id="d" cx="219.06" cy="82.77" fx="219.06" fy="82.77" r="62.76" xlink:href="#b"/></defs><path d="M536.86,436.05c113.64-1.87,196.71-3.21,310.34-5.08,22.13-.36,44.4-.74,66.1-5.11-52.16,.63-104.35-1.1-156.36-5.2"/><path d="M428.32,288.94c113.64-1.87,196.71-3.21,310.34-5.08,22.13-.36,44.4-.74,66.1-5.11-52.16,.63-104.35-1.1-156.36-5.2"/><path d="M331.11,114.94c113.64-1.87,196.71-3.21,310.34-5.08,22.13-.36,44.4-.74,66.1-5.11-52.16,.63-104.35-1.1-156.36-5.2"/><g><path d="M12.52,455.9c-1.63-.23-5.67-2.99-5.88-6.3-.16-2.53,1.78-4.66,4.36-6.89,3.87-3.34,6.08-8.48,7.66-13.57,7.53-24.25,11.13-48.96,6.51-74.51-2.28-12.6-8.15-22.63-17.21-30.87-3.51-3.19-9.46-6.9-7.62-12.39,1.77-5.27,8.09-6.56,13.31-7.43,8.57-1.42,17.13-3.58,25.74-3.84,19.72-.6,36.91-10.58,55.17-16.55,5.85-1.91,11.35-5.72,14.32-11.71,11.35-22.84,18.41-46.3,7.64-72.13-8.07-19.36-20.8-34.75-34.13-49.72-1.61-1.81-3.32-3.52-4.84-5.41-2.03-2.53-3.01-5.52-1.68-8.75,1.45-3.5,4.49-3.57,7.44-3.38,11.53,.76,23.06,1.76,34.6,2.33,18.1,.89,28.16-6.31,34.32-25.01,2.93-8.88,5.26-18.05,7.17-27.26,3.64-17.51-.63-28.11-14.37-37.88-3.01-2.14-7.91-3.55-7.01-8.37,.84-4.54,5.73-4.66,9.32-5.5,36.76-8.53,74.57-11.38,110.89-21.36,38.74-10.64,77.5-5.86,116.17-6.25C500.66,1.89,626.91,2.35,753.14,0c11.71-.22,18,4.5,22.43,15.88,11.72,30.07,9.54,60.43,2.95,91.05-1.45,6.75-3.19,13.47-5.36,19.98-2.28,6.86-1.06,9.86,6.13,9.82,12.42-.07,24.86,1.19,37.25,.68,14.56-.6,25.62,5.76,34.88,17.35,21.75,27.22,27.1,59.08,22.7,93.86-2.17,17.13-7.03,33.25-15.3,47.93-4.17,7.41-1.96,9.28,4.85,9.31,21.37,.08,42.74-.84,64.1,1.16,5.96,.56,9.43,2.93,12.15,8.5,21.06,43.12,21.03,87.03,4,131.39-4.41,11.48-13.8,15.32-24.72,15.71-23.1,.81-43.34,.43-69.29,2.75-15.12,1.35-216.77,12.84-282.47,14.34-35.88,.82-67.18,5.16-76.58,5.34,0,0-399-18-478.34-29.15Zm363.66-131.9c10.66,0,20.74,.45,30.77-.07,102.09-5.31,204.18-10.84,306.27-16.16,37.49-1.95,74.99-3.6,112.49-5.2,12.1-.52,22.83-4.43,27.69-17.23,16.53-43.58,15.57-85.49-12.03-124.12-4.11-5.76-9.42-9.24-16.17-9.79-28.8-2.35-57.62-5-86.5-3.87-40.38,1.57-80.72,4.4-121.1,6.12-65.18,2.78-130.53,.59-195.57,7.9-11.19,1.26-22.42,1.93-33.25,5.9-5.07,1.86-5.59,4.14-2.76,8.77,7.91,12.94,13.13,27.34,18.3,41.73,3.64,10.13,5.55,20.69,3.99,31.54-3.43,23.76-10.77,45.75-25.37,64.33-2.36,3.01-5.58,5.44-6.75,10.17ZM528.08,13.7c0,.89,0,1.79,0,2.68-38.99,0-77.98-.31-116.97,.09-37.25,.38-74.5,1.56-111.75,2.22-6.87,.12-10.19,1.21-6.59,10.13,5.44,13.48,6.34,28.04,5.9,42.71-.68,22.5-6.83,43.38-15.1,63.73-4.18,10.28-3.97,10.77,6.62,10.91,13.86,.18,27.72-.68,41.58-.47,82.32,1.28,164.62,.32,246.91-2.09,55.15-1.62,110.27-3.57,165.23-9.34,8.56-.9,16.47-3.33,19.82-12.63,11.43-31.75,13.8-64.27,5.14-97.36-2.08-7.95-6.46-10.88-14.63-10.83-75.38,.42-150.76,.25-226.14,.25ZM73.57,390.91c-10.8,5.34-19.87,3.01-28.68,3.65-2.96,.22-6.25-1.02-8.1,3.43-5.53,13.33-2.57,19.05,10.39,19.38,1.44,.04,2.89,0,4.33,.08,30.58,1.52,61.24,.91,91.78,3.81,4.05,.38,8.64,0,11.6,4.5-3.17,3.17-6.78,2.45-10.17,2.68-33.29,2.29-66.35-2.58-99.53-3.98-13.99-.59-13.72-.51-18.34,13.45-2.21,6.67,.13,7.63,5.35,7.38,6.05-.29,12.14-.38,18.19-.08,137.65,6.67,275.48,12.98,413.07,20.73,20.3,1.14,31.05-7.98,39.94-25.11,14.64-28.21,13.31-56.61,1.74-85.47-5.64-14.08-18.39-23.51-32.4-23.02-61.43,2.11-122.62,6.41-184.33,.75-86.3-7.91-173.18-6.44-259.6-13.87-2.93-.25-6.23-1.49-9.64,2.03,14.64,15.04,17.96,34.8,18.66,55.27,.3,8.84,3.63,11.35,11.14,10.87,7.54-.48,15.31-1.25,24.6,3.52Zm646.89,67.25v-.23c65.52-2.65,131.05-5.41,196.58-7.84,10.37-.38,16.62-5.2,20.01-15.83,11.46-35.98,8.92-71.42-2.95-106.57-2.64-7.82-8.39-10.99-15.6-11.2-25.41-.72-50.81-2.86-76.23-1.71-80.24,3.61-160.46,7.52-240.69,11.36-26.26,1.26-52.51,2.71-78.77,4.04-5.03,.26-8.97,.73-5,8.06,21.04,38.85,18.21,78.31,2.12,118-4.34,10.71-4.33,11.09,6.58,10.62,64.65-2.8,129.3-5.79,193.95-8.72Z"/><path class="g" d="M26.85,437.91c4.62-13.96,4.35-14.04,18.34-13.45,33.17,1.4,66.23,6.27,99.53,3.98,3.39-.23,7,.49,10.17-2.68-2.95-4.5-7.55-4.11-11.6-4.5-30.53-2.9-61.19-2.29-91.78-3.81-1.44-.07-2.89-.04-4.33-.08-12.96-.32-15.92-6.05-10.39-19.38,1.85-4.45,5.14-3.22,8.1-3.43,8.81-.64,17.88,1.69,28.68-3.65-9.29-4.77-17.06-4-24.6-3.52-7.51,.47-10.84-2.04-11.14-10.87-.7-20.47-4.03-40.23-18.66-55.27,3.41-3.52,6.71-2.28,9.64-2.03,86.42,7.44,173.3,5.96,259.6,13.87,61.71,5.66,122.91,1.36,184.33-.75,14.01-.48,26.76,8.95,32.4,23.02,11.57,28.86,12.9,57.26-1.74,85.47-8.89,17.13-19.64,26.25-39.94,25.11-137.6-7.75-275.42-14.07-413.07-20.73l-25.03,.35,1.5-7.65Z"/><path class="f" d="M97.57,146.99c6.34,9.62,14.53,13.65,24.55,14.57,14.38,1.32,28.74,2.99,43.1,4.68,2.86,.34,6.31,1.22,6.2,5.23-.12,4.25-3.32,5.54-6.81,5.45-2.88-.07-5.77-.34-8.64-.66-9.19-1.02-18.42-1.86-27.56-3.26-7.51-1.15-8.3,1.63-5.7,8.66,4.43,11.99,8.48,24.17,12.16,36.46,1.76,5.86,4.65,7.95,10.14,7.45,4.87-.44,9.82-.15,14.72,.17,3.73,.25,8.24,.47,8,6.24-.22,5.32-4.48,4.85-7.91,4.92-4.33,.1-8.67,.03-13,.04-13.46,.01-13.17,.08-15.91,14.36-1.26,6.58,.73,8.57,6.34,8.6,4.3,.02,8.73-.12,12.73,2.16,1.97,1.13,4.78,2.02,4.31,5.09-.39,2.54-3.07,2.47-4.99,2.93-5.46,1.32-10.94,.36-16.4-.04-4.61-.33-8.61,.37-11.1,5.31-3.13,6.2-12.58,11.08-10.24,17.02,2.48,6.3,12.2,5.25,19,6.24,63.84,9.23,128.16,14.53,191.57,27.17,18.41,3.67,31.74-4.3,42.38-18.47,21-27.96,22.54-60.64,15.89-94.3-5.36-27.11-23.46-42.37-48.98-42.94-3.17-.07-6.35-.27-9.5-.67-70.87-8.95-141.91-16.19-212.93-23.58-3.34-.35-6.82-1.63-11.41,1.16Z"/><path class="e" d="M284.1,71.22c.93-15.56-2.54-29.78-7.61-43.72-1.6-4.4-3.86-5.43-7.95-4.77-34.29,5.58-68.6,11.02-102.91,16.38-4.68,.73-6.06,2.64-3.7,7.44,6.04,12.28,8.68,25.33,7.22,39.29-.31,3,.21,5.67,3.64,6.37,2.52,.52,6.15,.9,5.98,4.22-.23,4.41-4.57,2.32-6.99,3.41-.78,.35-1.69,.42-2.54,.55-4.51,.66-5.37,4.57-5.54,8.35-.24,5.31,3.87,3.48,6.34,3.69,4.02,.34,8.08,.13,12.13,.17,3.01,.03,6.17,.27,6.43,4.5,.31,5.01-3.23,5.3-6.51,5.33-6.93,.08-13.86-.12-20.79,.02-4.47,.1-7.11,3.31-7.41,7.75-.39,5.67,4.33,4.02,6.97,4.28,30.21,2.92,60.44,5.68,90.67,8.34,12.82,1.13,18.77-3.12,22.86-16.4,5.55-18.03,9.19-36.5,9.71-55.2Z"/></g></svg>